<svg xmlns="http://www.w3.org/2000/svg" xmlns:xlink="http://www.w3.org/1999/xlink" width="990.032" height="767.734" viewBox="0 0 990.032 767.734">
  <defs>
    <linearGradient id="linear-gradient" x1="0.251" y1="0.032" x2="0.739" y2="0.981" gradientUnits="objectBoundingBox">
      <stop offset="0" stop-color="#493daa"/>
      <stop offset="1" stop-color="#7f22af"/>
    </linearGradient>
  </defs>
  <g id="Group_467" data-name="Group 467" transform="translate(-3872.856 -3254.76)">
    <g id="Path_665" data-name="Path 665" transform="translate(4119 3387)" fill="url(#linear-gradient)">
      <path d="M339.655,0a60,60,0,0,1,51.927,29.94L481.6,185.44a60,60,0,0,1,0,60.12l-90.017,155.5A60,60,0,0,1,339.655,431H159.345a60,60,0,0,1-51.927-29.94L17.4,245.56a60,60,0,0,1,0-60.12l90.017-155.5A60,60,0,0,1,159.345,0Z" stroke="none"/>
      <path d="M 159.3450012207031 18.00003051757812 C 144.4076843261719 18.00003051757812 130.4796142578125 26.03070068359375 122.9961547851562 38.95809936523438 L 32.97930908203125 194.4580993652344 C 25.46591186523438 207.4371643066406 25.46591186523438 223.5627899169922 32.97930908203125 236.5418548583984 L 122.9960632324219 392.0418701171875 C 130.4796142578125 404.9693298339844 144.4076843261719 413 159.3450012207031 413 L 339.6548461914062 413 C 354.5920715332031 413 368.5201416015625 404.9693298339844 376.0036926269531 392.0418701171875 L 466.0206298828125 236.5418548583984 C 473.5340881347656 223.5627899169922 473.5340881347656 207.4372406005859 466.0206298828125 194.4580993652344 L 376.0036926269531 38.95809936523438 C 368.5201416015625 26.03070068359375 354.5920715332031 18.00003051757812 339.6548461914062 18.00003051757812 L 159.3450012207031 18.00003051757812 M 159.3450012207031 3.0517578125e-05 L 339.6548461914062 3.0517578125e-05 C 361.0660705566406 3.0517578125e-05 380.8547668457031 11.4097900390625 391.581787109375 29.94015502929688 L 481.5986938476562 185.4401702880859 C 492.3628540039062 204.0346374511719 492.3628540039062 226.9653930664062 481.5986938476562 245.5598602294922 L 391.581787109375 401.0597839355469 C 380.8547668457031 419.5901794433594 361.0660705566406 431 339.6548461914062 431 L 159.3450012207031 431 C 137.9336853027344 431 118.1449890136719 419.5901794433594 107.4179992675781 401.0597839355469 L 17.4012451171875 245.5597839355469 C 6.63714599609375 226.9653167724609 6.63714599609375 204.0346374511719 17.4012451171875 185.4401702880859 L 107.4180908203125 29.94015502929688 C 118.1449890136719 11.4097900390625 137.9337768554688 3.0517578125e-05 159.3450012207031 3.0517578125e-05 Z" stroke="none" fill="rgba(255,255,255,0.07)"/>
    </g>
    <path id="Path_669" data-name="Path 669" d="M3.864,0h3.22V-20.412H1.26V-17.5h2.6ZM12.32-20.468V-8.68h3.024a3.683,3.683,0,0,1,3.668-2.548c2.66,0,3.976,1.512,3.976,4.172,0,2.52-1.232,4.4-3.976,4.4A3.806,3.806,0,0,1,14.98-5.516H11.872C12.348-2.324,14.784,0,18.984,0c4.732,0,7.056-3.08,7.056-7.14,0-3.08-1.54-6.8-6.552-6.8A5.47,5.47,0,0,0,15.26-12.1v-5.572h9.38v-2.8Zm16.548,4.984a4.065,4.065,0,0,0,4.256,4.4,4.065,4.065,0,0,0,4.256-4.4,4.057,4.057,0,0,0-4.256-4.368A4.057,4.057,0,0,0,28.868-15.484Zm4.256-2.436c1.064,0,1.764.7,1.764,2.436s-.7,2.464-1.764,2.464c-1.092,0-1.764-.728-1.764-2.464S32.032-17.92,33.124-17.92ZM31.64,0h3.136L45.948-19.488H42.812Zm8.624-4.032A4.065,4.065,0,0,0,44.52.364a4.058,4.058,0,0,0,4.228-4.4A4.035,4.035,0,0,0,44.52-8.4,4.042,4.042,0,0,0,40.264-4.032Zm4.228-2.436c1.064,0,1.764.7,1.764,2.436S45.556-1.6,44.492-1.6s-1.764-.7-1.764-2.436S43.428-6.468,44.492-6.468Z" transform="translate(4346 3772)" fill="#fff"/>
    <path id="Path_672" data-name="Path 672" d="M3.864,0h3.22V-20.412H1.26V-17.5h2.6ZM11.48-10.472c0,5.936,1.568,10.416,7.28,10.416s7.28-4.48,7.28-10.416c0-5.824-1.568-10.3-7.28-10.3S11.48-16.3,11.48-10.472Zm11.424,0c0,4-.42,7.5-4.144,7.5s-4.144-3.5-4.144-7.5c0-3.808.42-7.392,4.144-7.392S22.9-14.28,22.9-10.472Zm6.02-5.012a4.065,4.065,0,0,0,4.256,4.4,4.065,4.065,0,0,0,4.256-4.4,4.057,4.057,0,0,0-4.256-4.368A4.057,4.057,0,0,0,28.924-15.484ZM33.18-17.92c1.064,0,1.764.7,1.764,2.436s-.7,2.464-1.764,2.464c-1.092,0-1.764-.728-1.764-2.464S32.088-17.92,33.18-17.92ZM31.7,0h3.136L46-19.488H42.868ZM40.32-4.032a4.065,4.065,0,0,0,4.256,4.4,4.058,4.058,0,0,0,4.228-4.4A4.035,4.035,0,0,0,44.576-8.4,4.042,4.042,0,0,0,40.32-4.032Zm4.228-2.436c1.064,0,1.764.7,1.764,2.436S45.612-1.6,44.548-1.6s-1.764-.7-1.764-2.436S43.484-6.468,44.548-6.468Z" transform="translate(4503 3613)" fill="#fff"/>
    <path id="Path_673" data-name="Path 673" d="M15.6-15.68c-.336-2.716-2.324-5.236-6.3-5.236-5.1,0-7.224,3.864-7.224,10.248C2.072-4.172,3.612,0,9.548,0c4.368,0,6.692-2.94,6.692-6.8,0-4.256-2.6-6.72-6.272-6.72a5.891,5.891,0,0,0-5.152,2.576C4.9-16.3,6.384-18.256,9.268-18.256a3.053,3.053,0,0,1,3.388,2.576ZM9.268-10.836c2.688,0,3.92,1.736,3.92,4.172a3.656,3.656,0,0,1-3.808,4,3.87,3.87,0,0,1-4.2-4.2A3.812,3.812,0,0,1,9.268-10.836Zm9.884-4.648a4.065,4.065,0,0,0,4.256,4.4,4.065,4.065,0,0,0,4.256-4.4,4.057,4.057,0,0,0-4.256-4.368A4.057,4.057,0,0,0,19.152-15.484Zm4.256-2.436c1.064,0,1.764.7,1.764,2.436s-.7,2.464-1.764,2.464c-1.092,0-1.764-.728-1.764-2.464S22.316-17.92,23.408-17.92ZM21.924,0H25.06L36.232-19.488H33.1Zm8.624-4.032A4.065,4.065,0,0,0,34.8.364a4.058,4.058,0,0,0,4.228-4.4A4.035,4.035,0,0,0,34.8-8.4,4.042,4.042,0,0,0,30.548-4.032Zm4.228-2.436c1.064,0,1.764.7,1.764,2.436S35.84-1.6,34.776-1.6s-1.764-.7-1.764-2.436S33.712-6.468,34.776-6.468Z" transform="translate(4349 3452)" fill="#fff"/>
    <path id="Path_670" data-name="Path 670" d="M15.6-15.68c-.336-2.716-2.324-5.236-6.3-5.236-5.1,0-7.224,3.864-7.224,10.248C2.072-4.172,3.612,0,9.548,0c4.368,0,6.692-2.94,6.692-6.8,0-4.256-2.6-6.72-6.272-6.72a5.891,5.891,0,0,0-5.152,2.576C4.9-16.3,6.384-18.256,9.268-18.256a3.053,3.053,0,0,1,3.388,2.576ZM9.268-10.836c2.688,0,3.92,1.736,3.92,4.172a3.656,3.656,0,0,1-3.808,4,3.87,3.87,0,0,1-4.2-4.2A3.812,3.812,0,0,1,9.268-10.836ZM20.692-5.544c.252,2.912,2.212,5.516,6.44,5.516,5.348,0,6.8-3.668,6.8-10.556,0-6.692-1.764-10.3-7.028-10.3-4.284,0-6.776,2.688-6.776,6.748,0,4.312,2.912,6.524,6.5,6.524A5.552,5.552,0,0,0,31.164-9.6c0,5.208-1.288,6.916-3.836,6.916a3.355,3.355,0,0,1-3.7-2.856Zm6.5-4.76a3.65,3.65,0,0,1-4-3.92,3.669,3.669,0,0,1,3.808-4c2.324,0,3.808,1.484,3.808,4.088C30.8-11.844,29.456-10.3,27.188-10.3Zm9.744-5.18a4.065,4.065,0,0,0,4.256,4.4,4.065,4.065,0,0,0,4.256-4.4,4.057,4.057,0,0,0-4.256-4.368A4.057,4.057,0,0,0,36.932-15.484Zm4.256-2.436c1.064,0,1.764.7,1.764,2.436s-.7,2.464-1.764,2.464c-1.092,0-1.764-.728-1.764-2.464S40.1-17.92,41.188-17.92ZM39.7,0H42.84L54.012-19.488H50.876Zm8.624-4.032a4.065,4.065,0,0,0,4.256,4.4,4.058,4.058,0,0,0,4.228-4.4A4.035,4.035,0,0,0,52.584-8.4,4.042,4.042,0,0,0,48.328-4.032Zm4.228-2.436c1.064,0,1.764.7,1.764,2.436S53.62-1.6,52.556-1.6s-1.764-.7-1.764-2.436S51.492-6.468,52.556-6.468Z" transform="translate(4180 3612)" fill="#fff"/>
    <g id="Group_460" data-name="Group 460" transform="translate(-1554 -191)">
      <g id="Group_464" data-name="Group 464">
        <path id="Path_666" data-name="Path 666" d="M6127,3793.5h101.379" transform="translate(25.553)" fill="none" stroke="#7939b3" stroke-width="2"/>
        <circle id="Ellipse_17" data-name="Ellipse 17" cx="5" cy="5" r="5" transform="translate(6249 3789)" fill="#7a38b4"/>
      </g>
      <path id="Path_675" data-name="Path 675" d="M2.4-22.24V0H13.568V-2.944H6.048v-19.3ZM16.608,0h3.648V-17.632H16.608Zm1.856-19.968a2.3,2.3,0,0,0,2.3-2.336,2.3,2.3,0,0,0-2.3-2.336A2.309,2.309,0,0,0,16.128-22.3,2.309,2.309,0,0,0,18.464-19.968ZM23.84-8.9c0,5.44,3.68,9.184,8.224,9.184A7.8,7.8,0,0,0,38.272-2.56V8.384h3.68V-17.632h-3.68v2.56a7.437,7.437,0,0,0-6.08-2.848C27.52-17.92,23.84-14.336,23.84-8.9Zm14.432.064c0,3.808-2.592,5.952-5.344,5.952-2.72,0-5.344-2.208-5.344-6.016s2.624-5.856,5.344-5.856C35.68-14.752,38.272-12.608,38.272-8.832Zm24.448-8.8H59.072v9.824c0,3.232-1.76,4.9-4.448,4.9-2.656,0-4.416-1.664-4.416-4.9v-9.824H46.592V-7.264c0,4.928,3.136,7.52,7.264,7.52a6.563,6.563,0,0,0,5.216-2.368V0H62.72ZM67.52,0h3.648V-17.632H67.52Zm1.856-19.968a2.3,2.3,0,0,0,2.3-2.336,2.3,2.3,0,0,0-2.3-2.336A2.309,2.309,0,0,0,67.04-22.3,2.309,2.309,0,0,0,69.376-19.968ZM74.752-8.9c0,5.44,3.68,9.184,8.32,9.184a7.31,7.31,0,0,0,6.112-2.944V0h3.68V-23.68h-3.68v8.512A8.121,8.121,0,0,0,83.1-17.92C78.432-17.92,74.752-14.336,74.752-8.9Zm14.432.064c0,3.808-2.592,5.952-5.344,5.952C81.12-2.88,78.5-5.088,78.5-8.9s2.624-5.856,5.344-5.856C86.592-14.752,89.184-12.608,89.184-8.832ZM97.664,0h3.648V-17.632H97.664ZM99.52-19.968a2.3,2.3,0,0,0,2.3-2.336,2.3,2.3,0,0,0-2.3-2.336A2.309,2.309,0,0,0,97.184-22.3,2.309,2.309,0,0,0,99.52-19.968ZM106.688-4.9c0,3.584,1.952,4.9,5.088,4.9h2.88V-3.04h-2.24c-1.536,0-2.048-.544-2.048-1.856v-9.76h4.288v-2.976h-4.288v-4.384h-3.68v4.384h-2.08v2.976h2.08Zm18.272.7L120-17.632h-4.064L122.88-.288,119.3,8.288h3.776l10.816-25.92h-3.776ZM23.9,36.832a11.087,11.087,0,0,0-11.36-11.36,11.124,11.124,0,0,0-11.36,11.36,11.132,11.132,0,0,0,11.36,11.392A11.094,11.094,0,0,0,23.9,36.832Zm-18.976,0c0-5.024,3.2-8.16,7.616-8.16s7.616,3.136,7.616,8.16-3.2,8.224-7.616,8.224S4.928,41.856,4.928,36.832ZM27.936,48h3.68V33.344H34.88V30.368H31.616V29.12c0-2.016.768-2.784,3.008-2.784V23.3c-4.608,0-6.688,1.76-6.688,5.824v1.248h-2.08v2.976h2.08ZM38.56,48h3.68V33.344H45.5V30.368H42.24V29.12c0-2.016.768-2.784,3.008-2.784V23.3c-4.608,0-6.688,1.76-6.688,5.824v1.248H36.48v2.976h2.08Zm17.6-14.848c2.72,0,4.864,1.728,4.928,4.448h-9.76A4.8,4.8,0,0,1,56.16,33.152Zm8.256,9.6H60.48a4.269,4.269,0,0,1-4.16,2.464A4.85,4.85,0,0,1,51.3,40.544H64.768a11.253,11.253,0,0,0,.128-1.792c0-5.184-3.552-8.672-8.576-8.672-5.216,0-8.8,3.552-8.8,9.088s3.744,9.12,8.8,9.12A8.057,8.057,0,0,0,64.416,42.752Zm7.712-4.032c0-3.744,1.664-4.864,4.352-4.864h.928V30.08a5.743,5.743,0,0,0-5.28,2.848v-2.56H68.48V48h3.648ZM80.768,48h3.648V30.368H80.768Zm1.856-19.968A2.336,2.336,0,1,0,80.288,25.7,2.3,2.3,0,0,0,82.624,28.032ZM101.728,48h3.616V37.6c0-4.928-3.1-7.52-7.232-7.52a6.783,6.783,0,0,0-5.248,2.3V30.368H89.216V48h3.648V38.144c0-3.232,1.76-4.9,4.448-4.9,2.656,0,4.416,1.664,4.416,4.9Zm7.04-8.9c0,5.44,3.68,9.184,8.32,9.184a7.569,7.569,0,0,0,6.112-2.944v2.944c0,3.52-2.112,5.248-4.928,5.248-2.528,0-4.48-1.248-5.024-3.072h-3.616c.448,3.9,3.936,6.24,8.64,6.24,5.5,0,8.608-3.616,8.608-8.416V30.368H123.2v2.56a7.469,7.469,0,0,0-6.112-2.848C112.448,30.08,108.768,33.664,108.768,39.1Zm14.432.064c0,3.808-2.592,5.952-5.344,5.952-2.72,0-5.344-2.208-5.344-6.016s2.624-5.856,5.344-5.856C120.608,33.248,123.2,35.392,123.2,39.168Z" transform="translate(6283 3782)" fill="#5338ab"/>
    </g>
    <g id="Group_461" data-name="Group 461" transform="translate(-2494 -191)">
      <g id="Group_462" data-name="Group 462" transform="translate(12784.553 7588.5) rotate(180)">
        <path id="Path_666-2" data-name="Path 666" d="M6127,3793.5h98.93" transform="translate(25.553)" fill="none" stroke="#6245b2" stroke-width="2"/>
        <circle id="Ellipse_17-2" data-name="Ellipse 17" cx="5" cy="5" r="5" transform="translate(6246.483 3789)" fill="#6245b2"/>
      </g>
      <path id="Path_667" data-name="Path 667" d="M17.408-6.3c0-8.128-11.776-4.992-11.776-10.016,0-2.144,1.632-3.168,3.744-3.1,2.3.064,3.616,1.44,3.744,2.944h4.032c-.32-3.808-3.328-6.048-7.584-6.048-4.544,0-7.648,2.432-7.648,6.336,0,8.192,11.808,4.7,11.808,10.08,0,1.888-1.44,3.264-4,3.264C7.2-2.848,5.92-4.32,5.76-6.144h-3.9C1.856-2.208,5.28.224,9.728.224,14.688.224,17.408-2.976,17.408-6.3ZM22.3-4.9c0,3.584,1.952,4.9,5.088,4.9h2.88V-3.04h-2.24c-1.536,0-2.048-.544-2.048-1.856v-9.76h4.288v-2.976H25.984v-4.384H22.3v4.384h-2.08v2.976H22.3Zm10.112-4c0,5.44,3.68,9.184,8.256,9.184a7.589,7.589,0,0,0,6.176-2.912V0h3.68V-17.632h-3.68v2.56a7.505,7.505,0,0,0-6.112-2.848C36.1-17.92,32.416-14.336,32.416-8.9Zm14.432.064c0,3.808-2.592,5.952-5.344,5.952-2.72,0-5.344-2.208-5.344-6.016s2.624-5.856,5.344-5.856C44.256-14.752,46.848-12.608,46.848-8.832ZM55.328,0h3.648V-7.584L65.5,0h4.928L62.3-8.8l8.128-8.832H65.376l-6.4,7.712V-23.68H55.328ZM73.056,0H76.7V-17.632H73.056Zm1.856-19.968a2.3,2.3,0,0,0,2.3-2.336,2.3,2.3,0,0,0-2.3-2.336A2.309,2.309,0,0,0,72.576-22.3,2.309,2.309,0,0,0,74.912-19.968ZM94.016,0h3.616V-10.4c0-4.928-3.1-7.52-7.232-7.52a6.783,6.783,0,0,0-5.248,2.3v-2.016H81.5V0h3.648V-9.856c0-3.232,1.76-4.9,4.448-4.9,2.656,0,4.416,1.664,4.416,4.9Zm7.04-8.9c0,5.44,3.68,9.184,8.32,9.184a7.569,7.569,0,0,0,6.112-2.944V.288c0,3.52-2.112,5.248-4.928,5.248-2.528,0-4.48-1.248-5.024-3.072H101.92c.448,3.9,3.936,6.24,8.64,6.24,5.5,0,8.608-3.616,8.608-8.416v-17.92h-3.68v2.56a7.469,7.469,0,0,0-6.112-2.848C104.736-17.92,101.056-14.336,101.056-8.9Zm14.432.064c0,3.808-2.592,5.952-5.344,5.952-2.72,0-5.344-2.208-5.344-6.016s2.624-5.856,5.344-5.856C112.9-14.752,115.488-12.608,115.488-8.832ZM14.208,32.416c0,2.208-1.28,3.776-4.128,3.776H6.048V28.736H10.08C12.928,28.736,14.208,30.176,14.208,32.416ZM2.4,25.76V48H6.048V39.1H8.832l5.12,8.9H18.3l-5.5-9.216a6.33,6.33,0,0,0,5.152-6.368c0-3.616-2.592-6.656-7.872-6.656Zm27.648,7.392c2.72,0,4.864,1.728,4.928,4.448h-9.76A4.8,4.8,0,0,1,30.048,33.152Zm8.256,9.6H34.368a4.269,4.269,0,0,1-4.16,2.464,4.85,4.85,0,0,1-5.024-4.672H38.656a11.253,11.253,0,0,0,.128-1.792c0-5.184-3.552-8.672-8.576-8.672-5.216,0-8.8,3.552-8.8,9.088s3.744,9.12,8.8,9.12A8.057,8.057,0,0,0,38.3,42.752ZM45.792,48h3.84l3.552-13.024L56.736,48h3.84l5.472-17.632H62.464L58.816,44.48,55.232,30.368H51.424L47.68,44.544,44,30.368H40.288Zm21.76-8.9c0,5.44,3.68,9.184,8.256,9.184a7.589,7.589,0,0,0,6.176-2.912V48h3.68V30.368h-3.68v2.56a7.505,7.505,0,0,0-6.112-2.848C71.232,30.08,67.552,33.664,67.552,39.1Zm14.432.064c0,3.808-2.592,5.952-5.344,5.952-2.72,0-5.344-2.208-5.344-6.016s2.624-5.856,5.344-5.856C79.392,33.248,81.984,35.392,81.984,39.168Zm12.128-.448c0-3.744,1.664-4.864,4.352-4.864h.928V30.08a5.743,5.743,0,0,0-5.28,2.848v-2.56H90.464V48h3.648Zm7.424.384c0,5.44,3.68,9.184,8.32,9.184a7.31,7.31,0,0,0,6.112-2.944V48h3.68V24.32h-3.68v8.512a8.121,8.121,0,0,0-6.08-2.752C105.216,30.08,101.536,33.664,101.536,39.1Zm14.432.064c0,3.808-2.592,5.952-5.344,5.952-2.72,0-5.344-2.208-5.344-6.016s2.624-5.856,5.344-5.856C113.376,33.248,115.968,35.392,115.968,39.168Zm21.632,3.9c-.192-6.368-10.144-4.384-10.144-7.936,0-1.184,1.024-1.984,2.976-1.984,1.984,0,3.168,1.056,3.3,2.592h3.648c-.192-3.52-2.816-5.664-6.816-5.664-4.16,0-6.784,2.272-6.784,5.088,0,6.464,10.24,4.48,10.24,7.936,0,1.216-1.12,2.112-3.232,2.112-2.016,0-3.392-1.184-3.52-2.624h-3.776c.16,3.2,3.136,5.7,7.36,5.7C135.008,48.288,137.6,46.048,137.6,43.072Z" transform="translate(6365 3782)" fill="#5338ab"/>
    </g>
    <g id="Group_463" data-name="Group 463" transform="translate(-2020 -609)">
      <g id="Group_462-2" data-name="Group 462" transform="translate(2594.5 10162.776) rotate(-90)">
        <path id="Path_666-3" data-name="Path 666" d="M6127,3793.5h75.334" transform="translate(25.553)" fill="none" stroke="#6245b2" stroke-width="2"/>
        <circle id="Ellipse_17-3" data-name="Ellipse 17" cx="5" cy="5" r="5" transform="translate(6222.887 3789)" fill="#6245b2"/>
      </g>
      <path id="Path_674" data-name="Path 674" d="M1.248-19.264H7.2V0h3.648V-19.264h5.92V-22.24H1.248Zm26.624,4.416c2.72,0,4.864,1.728,4.928,4.448H23.04A4.8,4.8,0,0,1,27.872-14.848Zm8.256,9.6H32.192a4.269,4.269,0,0,1-4.16,2.464,4.85,4.85,0,0,1-5.024-4.672H36.48a11.253,11.253,0,0,0,.128-1.792c0-5.184-3.552-8.672-8.576-8.672-5.216,0-8.8,3.552-8.8,9.088s3.744,9.12,8.8,9.12A8.057,8.057,0,0,0,36.128-5.248ZM38.976-8.9c0,5.44,3.68,9.184,8.256,9.184a7.589,7.589,0,0,0,6.176-2.912V0h3.68V-17.632h-3.68v2.56A7.505,7.505,0,0,0,47.3-17.92C42.656-17.92,38.976-14.336,38.976-8.9Zm14.432.064c0,3.808-2.592,5.952-5.344,5.952-2.72,0-5.344-2.208-5.344-6.016s2.624-5.856,5.344-5.856C50.816-14.752,53.408-12.608,53.408-8.832ZM86.88,0H90.5V-10.4c0-4.928-3.136-7.52-7.264-7.52a6.9,6.9,0,0,0-6.144,3.488,6.8,6.8,0,0,0-6.336-3.488,6.715,6.715,0,0,0-5.216,2.3v-2.016H61.888V0h3.648V-9.856c0-3.232,1.76-4.9,4.448-4.9,2.656,0,4.416,1.664,4.416,4.9V0h3.616V-9.856c0-3.232,1.76-4.9,4.448-4.9,2.656,0,4.416,1.664,4.416,4.9Z" transform="translate(6342 3886)" fill="#5338ab"/>
    </g>
    <g id="Group_465" data-name="Group 465" transform="translate(-2018 58.11)">
      <g id="Group_462-3" data-name="Group 462" transform="translate(10182.5 -2392.664) rotate(90)">
        <path id="Path_666-4" data-name="Path 666" d="M6127,3793.5h75.334" transform="translate(25.553)" fill="none" stroke="#6245b2" stroke-width="2"/>
        <circle id="Ellipse_17-4" data-name="Ellipse 17" cx="5" cy="5" r="5" transform="translate(6222.887 3789)" fill="#6245b2"/>
      </g>
      <path id="Path_668" data-name="Path 668" d="M-24.224-22.272H-36.512V0h12.288V-2.976h-8.64V-9.792h7.68v-2.976h-7.68V-19.3h8.64ZM-20.96-8.9c0,5.44,3.68,9.184,8.256,9.184A7.589,7.589,0,0,0-6.528-2.624V0h3.68V-17.632h-3.68v2.56A7.505,7.505,0,0,0-12.64-17.92C-17.28-17.92-20.96-14.336-20.96-8.9Zm14.432.064c0,3.808-2.592,5.952-5.344,5.952-2.72,0-5.344-2.208-5.344-6.016s2.624-5.856,5.344-5.856C-9.12-14.752-6.528-12.608-6.528-8.832ZM5.6-9.28c0-3.744,1.664-4.864,4.352-4.864h.928V-17.92A5.743,5.743,0,0,0,5.6-15.072v-2.56H1.952V0H5.6ZM14.24,0h3.648V-23.68H14.24ZM29.632-4.192l-4.96-13.44H20.608L27.552-.288,23.968,8.288h3.776L38.56-17.632H34.784ZM-56.16,48h3.84l-7.968-22.272h-4.224L-72.48,48h3.808l1.6-4.544h9.312Zm-2.624-7.52h-7.264L-62.4,30.144Zm8.7-1.376c0,5.44,3.68,9.184,8.32,9.184a7.31,7.31,0,0,0,6.112-2.944V48h3.68V24.32h-3.68v8.512a8.121,8.121,0,0,0-6.08-2.752C-46.4,30.08-50.08,33.664-50.08,39.1Zm14.432.064c0,3.808-2.592,5.952-5.344,5.952-2.72,0-5.344-2.208-5.344-6.016s2.624-5.856,5.344-5.856C-38.24,33.248-35.648,35.392-35.648,39.168Zm25.28,0A8.7,8.7,0,0,0-19.36,30.08a8.7,8.7,0,0,0-8.992,9.088c0,5.536,3.808,9.12,8.832,9.12A8.832,8.832,0,0,0-10.368,39.168Zm-14.272,0c0-4,2.464-5.92,5.216-5.92,2.72,0,5.312,1.92,5.312,5.92S-16.8,45.12-19.52,45.12C-22.272,45.12-24.64,43.168-24.64,39.168ZM-3.1,32.96V30.368H-6.752V56.384H-3.1V45.44A7.971,7.971,0,0,0,3.04,48.288c4.64,0,8.288-3.744,8.288-9.184S7.68,30.08,3.04,30.08A7.693,7.693,0,0,0-3.1,32.96ZM7.616,39.1c0,3.808-2.624,6.016-5.376,6.016-2.72,0-5.344-2.144-5.344-5.952,0-3.776,2.624-5.92,5.344-5.92C4.992,33.248,7.616,35.3,7.616,39.1Zm7.9,4c0,3.584,1.952,4.9,5.088,4.9h2.88V44.96h-2.24c-1.536,0-2.048-.544-2.048-1.856v-9.76h4.288V30.368H19.2V25.984H15.52v4.384H13.44v2.976h2.08Zm18.752-9.952c2.72,0,4.864,1.728,4.928,4.448H29.44A4.8,4.8,0,0,1,34.272,33.152Zm8.256,9.6H38.592a4.269,4.269,0,0,1-4.16,2.464,4.85,4.85,0,0,1-5.024-4.672H42.88a11.253,11.253,0,0,0,.128-1.792c0-5.184-3.552-8.672-8.576-8.672-5.216,0-8.8,3.552-8.8,9.088s3.744,9.12,8.8,9.12A8.057,8.057,0,0,0,42.528,42.752ZM50.24,38.72c0-3.744,1.664-4.864,4.352-4.864h.928V30.08a5.743,5.743,0,0,0-5.28,2.848v-2.56H46.592V48H50.24Zm21.792,4.352c-.192-6.368-10.144-4.384-10.144-7.936,0-1.184,1.024-1.984,2.976-1.984,1.984,0,3.168,1.056,3.3,2.592h3.648c-.192-3.52-2.816-5.664-6.816-5.664-4.16,0-6.784,2.272-6.784,5.088,0,6.464,10.24,4.48,10.24,7.936,0,1.216-1.12,2.112-3.232,2.112-2.016,0-3.392-1.184-3.52-2.624H57.92c.16,3.2,3.136,5.7,7.36,5.7C69.44,48.288,72.032,46.048,72.032,43.072Z" transform="translate(6388.5 3908)" fill="#5338ab"/>
    </g>
    <path id="Path_671" data-name="Path 671" d="M11.97,3.654h2.688V.252c6.636-.294,10.248-4.284,10.248-8.82,0-6.51-5.754-7.728-10.248-8.988v-6.51a3.242,3.242,0,0,1,2.142,2.94h7.686c-.378-5.334-4.074-8.274-9.828-8.736v-3.4H11.97v3.4c-5.712.378-10.122,3.486-10.122,8.736,0,6.594,5.628,7.854,10.122,9.03V-5.46A3.422,3.422,0,0,1,9.534-8.694H1.89C2.1-3.276,6.258-.294,11.97.21Zm5.418-11.97a3,3,0,0,1-2.73,2.982V-11.3C16.3-10.668,17.388-9.828,17.388-8.316ZM9.45-21.462a2.675,2.675,0,0,1,2.52-2.814v5.838C10.458-19.11,9.45-19.992,9.45-21.462ZM48.594,0h7.182V-29.484H48.594v11.55H37.422v-11.55H30.24V0h7.182V-12.138H48.594Zm41.37-14.826A14.7,14.7,0,0,0,74.886-29.9,14.8,14.8,0,0,0,59.724-14.826,14.833,14.833,0,0,0,74.886.294,14.764,14.764,0,0,0,89.964-14.826Zm-22.89,0c0-5.25,3.024-8.568,7.812-8.568,4.7,0,7.77,3.318,7.77,8.568,0,5.166-3.066,8.568-7.77,8.568C70.1-6.258,67.074-9.66,67.074-14.826ZM93.954,0h7.182V-17.724L107.772,0h5.8l6.594-17.682V0h7.182V-29.484H118.9l-8.19,20.412-8.274-20.412H93.954ZM150.57-29.484H132.51V0h18.06V-5.754H139.692v-6.468h9.618v-5.544h-9.618V-23.73H150.57Z" transform="translate(4292 3617)" fill="#fff"/>
  </g>
</svg>
