<svg xmlns="http://www.w3.org/2000/svg" xmlns:xlink="http://www.w3.org/1999/xlink" width="202" height="202" viewBox="0 0 202 202">
  <defs>
    <linearGradient id="linear-gradient" x1="0.059" y1="0.064" x2="0.926" y2="0.946" gradientUnits="objectBoundingBox">
      <stop offset="0" stop-color="#b84482"/>
      <stop offset="1" stop-color="#9644b8"/>
    </linearGradient>
  </defs>
  <g id="Group_446" data-name="Group 446" transform="translate(-4743 -5172)">
    <rect id="Rectangle_136" data-name="Rectangle 136" width="202" height="202" rx="47" transform="translate(4743 5172)" fill="url(#linear-gradient)"/>
    <g id="key" transform="translate(4790 5219)">
      <path id="Path_637" data-name="Path 637" d="M42.109,451.992A2.109,2.109,0,0,0,40,454.1v0a2.109,2.109,0,1,0,2.109-2.111Zm0,0" transform="translate(-31.562 -356.65)" fill="#fff"/>
      <path id="Path_638" data-name="Path 638" d="M146.93,0H130.055a2.109,2.109,0,0,0-2.109,2.109v2.2l-2.815-.017h-.013a2.109,2.109,0,0,0-.013,4.219l2.841.017V30.414c-5.523,3.479-10.508,1.476-15.77-.644-3.467-1.4-7.054-2.84-10.633-2.391-1.129.142-4.176.584-7.4,1.052-3.056.443-6.217.9-7.3,1.039a2.092,2.092,0,0,1-1.552-.433,2.153,2.153,0,0,1-.82-1.442C84.42,27.222,84.3,26.229,86.94,25A106.075,106.075,0,0,1,103.3,18.908a2.109,2.109,0,0,0-1.085-4.077,110.407,110.407,0,0,0-17.05,6.345A9.308,9.308,0,0,0,81.172,24.3L60.023,30.069c-2.225.559-3.366-.326-3.693-1.342a2.351,2.351,0,0,1,1.658-2.918c1.655-.63,5.606-2.37,10.606-4.57,6.626-2.916,14.872-6.546,21.447-9.213,7.814-3.17,10.2-3.648,18.195-3.619h.007a2.109,2.109,0,0,0,.006-4.219c-8.533-.029-11.494.562-19.793,3.929-6.633,2.69-14.91,6.333-21.561,9.26-4.76,2.1-8.872,3.9-10.419,4.493l-.02.007a6.527,6.527,0,0,0-4.142,8.14c.91,2.833,4.042,5.335,8.764,4.136l.036-.01L80.421,28.88a6.366,6.366,0,0,0,6.943,4.777c1.127-.142,4.166-.583,7.384-1.05,3.064-.445,6.232-.9,7.321-1.042,2.493-.313,5.426.868,8.531,2.118,3.29,1.325,7.038,2.835,11.095,2.834a15.209,15.209,0,0,0,6.251-1.328v.669a2.109,2.109,0,0,0,2.109,2.109H146.93a2.109,2.109,0,0,0,2.109-2.109V2.109A2.109,2.109,0,0,0,146.93,0ZM144.82,33.75H132.164V4.219H144.82Zm0,0" transform="translate(-41.039)" fill="#fff"/>
      <path id="Path_639" data-name="Path 639" d="M454.109,44.223a2.109,2.109,0,0,0,2.109-2.109v0a2.109,2.109,0,1,0-2.109,2.111Zm0,0" transform="translate(-356.656 -31.566)" fill="#fff"/>
      <path id="Path_640" data-name="Path 640" d="M130.765,215.531a14.756,14.756,0,0,0,12.107-6.328h7.793a2.109,2.109,0,0,0,1.491-.618l3.6-3.6h2.472l3.6,3.6a2.109,2.109,0,0,0,1.491.618h3.3a2.109,2.109,0,0,0,1.491-.618l6.328-6.328a2.109,2.109,0,0,0,.618-1.491v-6.328a2.11,2.11,0,0,0-2.109-2.109h-30.08a14.762,14.762,0,1,0-12.107,23.2Zm40.078-18.984v3.345l-5.092,5.092H164.2l-3.6-3.6a2.109,2.109,0,0,0-1.491-.618h-4.219a2.109,2.109,0,0,0-1.491.618l-3.6,3.6h-4.878a14.728,14.728,0,0,0,0-8.437Zm-40.078-6.328a10.547,10.547,0,1,1-10.547,10.547A10.559,10.559,0,0,1,130.765,190.219Zm0,0" transform="translate(-91.531 -146.766)" fill="#fff"/>
      <path id="Path_641" data-name="Path 641" d="M158.109,250.216a2.11,2.11,0,1,0-2.109-2.11v0A2.109,2.109,0,0,0,158.109,250.216Zm0,0" transform="translate(-123.094 -194.107)" fill="#fff"/>
      <path id="Path_642" data-name="Path 642" d="M350.7,24.324h0a2.109,2.109,0,1,0-2.11-2.109A2.109,2.109,0,0,0,350.7,24.324Zm0,0" transform="translate(-275.062 -15.865)" fill="#fff"/>
      <path id="Path_643" data-name="Path 643" d="M87.961,335.817l-.036.01-19.306,5.264a6.366,6.366,0,0,0-6.943-4.777c-1.127.142-4.166.583-7.384,1.05-3.064.445-6.232.9-7.321,1.042-2.492.312-5.426-.868-8.531-2.118-4.924-1.982-10.876-4.379-17.346-1.509v-.666A2.109,2.109,0,0,0,18.984,332H2.11A2.109,2.109,0,0,0,0,334.113v33.749a2.109,2.109,0,0,0,2.109,2.109H18.984a2.109,2.109,0,0,0,2.109-2.109v-2.2l2.815.017h.013a2.109,2.109,0,0,0,.013-4.219l-2.841-.017V339.557c5.523-3.479,10.508-1.476,15.77.643,3.468,1.4,7.056,2.841,10.633,2.391,1.13-.142,4.176-.583,7.4-1.051,3.056-.444,6.217-.9,7.3-1.039a2.088,2.088,0,0,1,1.552.433,2.15,2.15,0,0,1,.82,1.442c.046.373.17,1.366-2.474,2.592a105.989,105.989,0,0,1-16.36,6.095,2.109,2.109,0,1,0,1.084,4.077A110.441,110.441,0,0,0,63.875,348.8a9.318,9.318,0,0,0,3.994-3.126L89.016,339.9c2.224-.56,3.366.326,3.693,1.342a2.351,2.351,0,0,1-1.657,2.918c-1.655.63-5.607,2.37-10.608,4.571-6.626,2.916-14.871,6.545-21.446,9.212-7.814,3.17-10.2,3.649-18.195,3.619H40.8a2.109,2.109,0,0,0-.006,4.219h.51c8.146,0,11.152-.63,19.283-3.93,6.632-2.69,14.91-6.333,21.56-9.26,4.761-2.1,8.873-3.9,10.419-4.493l.021-.007a6.527,6.527,0,0,0,4.142-8.14c-.91-2.832-4.042-5.334-8.764-4.136ZM4.219,365.753V336.222H16.875v29.531Zm0,0" transform="translate(0 -261.972)" fill="#fff"/>
      <path id="Path_644" data-name="Path 644" d="M145.516,471.895h0A2.109,2.109,0,1,0,147.626,474,2.109,2.109,0,0,0,145.515,471.895Zm0,0" transform="translate(-113.156 -372.355)" fill="#fff"/>
    </g>
  </g>
</svg>
