<svg xmlns="http://www.w3.org/2000/svg" xmlns:xlink="http://www.w3.org/1999/xlink" width="202" height="202" viewBox="0 0 202 202">
  <defs>
    <linearGradient id="linear-gradient" x1="0.059" y1="0.064" x2="0.926" y2="0.946" gradientUnits="objectBoundingBox">
      <stop offset="0" stop-color="#44a4b8"/>
      <stop offset="1" stop-color="#44b867"/>
    </linearGradient>
  </defs>
  <g id="Group_455" data-name="Group 455" transform="translate(-4743 -5172)">
    <rect id="Rectangle_136" data-name="Rectangle 136" width="202" height="202" rx="47" transform="translate(4743 5172)" fill="url(#linear-gradient)"/>
    <g id="city-hall" transform="translate(4787.715 5215.704)">
      <g id="Group_457" data-name="Group 457" transform="translate(0 1.296)">
        <g id="Group_456" data-name="Group 456" transform="translate(0 0)">
          <path id="Path_663" data-name="Path 663" d="M106.941,102.039v-1.876a5.626,5.626,0,0,0-3.752-5.268V92.658a5.619,5.619,0,0,0-3.752-5.283V58.542a5.619,5.619,0,0,0,3.752-5.283V49.95l3.419-6.838,5.412-5.412a1.874,1.874,0,0,0-.35-2.928L57.262,1.571a1.872,1.872,0,0,0-1.953,0L.9,34.772A1.874,1.874,0,0,0,.55,37.7l5.412,5.412L9.381,49.95v3.309a5.619,5.619,0,0,0,3.752,5.283V87.375a5.619,5.619,0,0,0-3.752,5.283v2.237a5.626,5.626,0,0,0-3.752,5.268v1.876A5.634,5.634,0,0,0,0,107.667v3.752A1.875,1.875,0,0,0,1.876,113.3H110.693a1.875,1.875,0,0,0,1.876-1.875h0v-3.752A5.634,5.634,0,0,0,106.941,102.039Zm-7.5-48.78a1.878,1.878,0,0,1-1.876,1.876H86.3a1.878,1.878,0,0,1-1.876-1.876V51.383H99.437v1.876ZM46.9,87.375V58.542a5.619,5.619,0,0,0,3.752-5.283V51.383H61.914v1.876a5.619,5.619,0,0,0,3.752,5.283V87.375a5.619,5.619,0,0,0-3.752,5.283v1.876H50.657V92.658A5.619,5.619,0,0,0,46.9,87.375ZM15.01,55.135a1.878,1.878,0,0,1-1.876-1.876V51.383H28.143v1.876a1.878,1.878,0,0,1-1.876,1.876Zm9.381,3.752V87.029h-7.5V58.887Zm3.752-.346a5.6,5.6,0,0,0,1.876-1.118A5.6,5.6,0,0,0,31.9,58.541V87.375a5.6,5.6,0,0,0-1.876,1.118,5.6,5.6,0,0,0-1.876-1.118ZM31.9,92.658a1.878,1.878,0,0,1,1.876-1.876H45.028A1.878,1.878,0,0,1,46.9,92.658v1.876H31.9Zm3.752-5.628V58.887h7.5V87.029Zm9.381-31.894H33.771A1.878,1.878,0,0,1,31.9,53.259V51.383H46.9v1.876A1.878,1.878,0,0,1,45.028,55.135ZM65.666,92.658a1.878,1.878,0,0,1,1.876-1.876H78.8a1.878,1.878,0,0,1,1.876,1.876v1.876H65.666Zm3.752-5.628V58.887h7.5V87.029ZM78.8,55.135H67.542a1.878,1.878,0,0,1-1.876-1.876V51.383H80.675v1.876A1.878,1.878,0,0,1,78.8,55.135Zm1.876,3.407a5.6,5.6,0,0,0,1.876-1.118,5.6,5.6,0,0,0,1.876,1.118V87.375a5.6,5.6,0,0,0-1.876,1.118,5.6,5.6,0,0,0-1.876-1.118Zm3.752,34.116A1.878,1.878,0,0,1,86.3,90.782H97.56a1.878,1.878,0,0,1,1.876,1.876v1.876H84.427V92.658Zm3.752-5.628V58.887h7.5V87.029Zm-80.4-47.4L4.889,36.733,56.285,5.37l51.4,31.363-2.895,2.895L57.269,10.386a1.874,1.874,0,0,0-1.968,0Zm90.652.5h-84.3L56.285,14.187Zm-86.019,7.5-1.876-3.752h91.488l-1.876,3.752Zm.716,45.027a1.878,1.878,0,0,1,1.876-1.876H26.267a1.878,1.878,0,0,1,1.876,1.876v1.876H13.134Zm95.683,16.885H3.753v-1.876a1.878,1.878,0,0,1,1.876-1.876h39.4a1.876,1.876,0,1,0,0-3.752H9.382v-1.876a1.916,1.916,0,0,1,1.95-1.876h89.908a1.916,1.916,0,0,1,1.95,1.876v1.876H67.542a1.876,1.876,0,1,0,0,3.752h39.4a1.878,1.878,0,0,1,1.876,1.876Z" transform="translate(0 -1.296)" fill="#fff"/>
        </g>
      </g>
      <g id="Group_459" data-name="Group 459" transform="translate(48.781 20.427)">
        <g id="Group_458" data-name="Group 458">
          <path id="Path_664" data-name="Path 664" d="M229.375,88.309a7.5,7.5,0,1,0,7.5,7.5A7.512,7.512,0,0,0,229.375,88.309Zm0,11.257a3.752,3.752,0,1,1,3.752-3.752A3.752,3.752,0,0,1,229.375,99.566Z" transform="translate(-221.87 -88.309)" fill="#fff"/>
        </g>
      </g>
    </g>
  </g>
</svg>
