<svg xmlns="http://www.w3.org/2000/svg" xmlns:xlink="http://www.w3.org/1999/xlink" width="202" height="202" viewBox="0 0 202 202">
  <defs>
    <linearGradient id="linear-gradient" x1="0.059" y1="0.064" x2="0.926" y2="0.946" gradientUnits="objectBoundingBox">
      <stop offset="0" stop-color="#b85844"/>
      <stop offset="1" stop-color="#a644b8"/>
    </linearGradient>
  </defs>
  <g id="Group_447" data-name="Group 447" transform="translate(-4743 -5172)">
    <rect id="Rectangle_136" data-name="Rectangle 136" width="202" height="202" rx="47" transform="translate(4743 5172)" fill="url(#linear-gradient)"/>
    <g id="earnings" transform="translate(4789 5218.001)">
      <path id="Path_645" data-name="Path 645" d="M64.224,58.007a3.212,3.212,0,0,0,2.279-.944l23.5-23.5,10.612,10.612a3.221,3.221,0,0,0,4.557,0L138.345,11v5.111a3.223,3.223,0,1,0,6.445,0V3.222c0-.106-.006-.212-.016-.317-.005-.053-.015-.1-.023-.155s-.013-.1-.023-.155-.029-.123-.044-.185c-.011-.039-.019-.08-.031-.119-.019-.065-.043-.127-.066-.19-.013-.035-.024-.071-.039-.106-.027-.065-.058-.128-.088-.19-.015-.032-.029-.064-.045-.095-.037-.069-.077-.134-.118-.2-.014-.023-.027-.047-.042-.07-.058-.086-.119-.17-.185-.251l0,0A3.3,3.3,0,0,0,143.6.722l0,0c-.081-.065-.164-.127-.251-.185-.023-.015-.046-.028-.07-.042-.065-.041-.131-.081-.2-.118-.031-.017-.063-.03-.095-.045-.062-.031-.125-.061-.19-.088-.034-.014-.07-.025-.106-.039-.063-.023-.125-.047-.19-.066-.039-.012-.08-.02-.119-.031-.061-.015-.122-.033-.185-.044s-.1-.016-.155-.023-.1-.018-.155-.023c-.1-.01-.211-.016-.317-.016H128.677a3.223,3.223,0,1,0,0,6.445h5.111L102.9,37.337,92.284,26.725a3.221,3.221,0,0,0-4.557,0L61.945,52.506a3.223,3.223,0,0,0,2.279,5.5Zm0,0" transform="translate(-47.895)" fill="#fff"/>
      <path id="Path_646" data-name="Path 646" d="M0,480.512a3.221,3.221,0,0,0,3.223,3.223H29a3.221,3.221,0,0,0,3.223-3.223V476H0Zm0,0" transform="translate(0 -373.734)" fill="#fff"/>
      <path id="Path_647" data-name="Path 647" d="M29,410H3.223A3.221,3.221,0,0,0,0,413.223v4.512H32.227v-4.512A3.221,3.221,0,0,0,29,410Zm0,0" transform="translate(0 -321.914)" fill="#fff"/>
      <path id="Path_648" data-name="Path 648" d="M181,480.512a3.221,3.221,0,0,0,3.223,3.223H210a3.221,3.221,0,0,0,3.223-3.223V476H181Zm0,0" transform="translate(-142.113 -373.734)" fill="#fff"/>
      <path id="Path_649" data-name="Path 649" d="M362,410h32.227v7.734H362Zm0,0" transform="translate(-284.226 -321.914)" fill="#fff"/>
      <path id="Path_650" data-name="Path 650" d="M391,212H365.223A3.221,3.221,0,0,0,362,215.223v4.512h32.227v-4.512A3.221,3.221,0,0,0,391,212Zm0,0" transform="translate(-284.226 -166.454)" fill="#fff"/>
      <path id="Path_651" data-name="Path 651" d="M362,278h32.227v7.734H362Zm0,0" transform="translate(-284.226 -218.274)" fill="#fff"/>
      <path id="Path_652" data-name="Path 652" d="M362,344h32.227v7.734H362Zm0,0" transform="translate(-284.226 -270.094)" fill="#fff"/>
      <path id="Path_653" data-name="Path 653" d="M362,480.512a3.221,3.221,0,0,0,3.223,3.223H391a3.221,3.221,0,0,0,3.223-3.223V476H362Zm0,0" transform="translate(-284.226 -373.734)" fill="#fff"/>
      <path id="Path_654" data-name="Path 654" d="M181,410h32.227v7.734H181Zm0,0" transform="translate(-142.113 -321.914)" fill="#fff"/>
      <path id="Path_655" data-name="Path 655" d="M210,344H184.223A3.221,3.221,0,0,0,181,347.223v4.512h32.227v-4.512A3.221,3.221,0,0,0,210,344Zm0,0" transform="translate(-142.113 -270.094)" fill="#fff"/>
    </g>
  </g>
</svg>
