<svg xmlns="http://www.w3.org/2000/svg" width="1014.827" height="253.255" viewBox="0 0 1014.827 253.255">
  <g id="Group_467" data-name="Group 467" transform="translate(-6719.166 -3105.745)">
    <path id="Subtraction_2" data-name="Subtraction 2" d="M113.017,253.255h0L53.846,219.526V101.183l59.171-33.136,75.74,42.6v-28.4l-75.74-42.6L31.361,86.982V205.917L0,188.757V62.722L113.018,0,223.669,62.722V188.757l-110.651,64.5Zm16.817-142v22h22v-22Zm-48,0v22h22v-22Z" transform="translate(6719.166 3105.745)" fill="#fff"/>
    <path id="Path_669" data-name="Path 669" d="M65.024,0h17.92V-89.344H65.024v36.736H26.752V-89.344H8.832V0h17.92V-38.016H65.024ZM169.088-35.456c0-22.4-16-36.608-36.48-36.608s-36.48,14.208-36.48,36.608c0,22.272,15.488,36.608,35.968,36.608C152.7,1.152,169.088-13.184,169.088-35.456Zm-54.784,0c0-14.208,8.576-20.992,18.048-20.992s18.3,6.784,18.3,20.992c0,14.08-9.088,20.992-18.56,20.992C122.5-14.464,114.3-21.376,114.3-35.456ZM281.472,0h17.92V-41.6c0-19.584-12.032-30.336-29.056-30.336-10.368,0-19.712,5.5-24.32,13.568-4.864-8.832-13.952-13.568-24.96-13.568-8.832,0-16.384,3.712-20.864,9.6v-8.576h-17.92V0h17.92V-39.168c0-11.264,6.272-17.152,16-17.152,9.472,0,15.744,5.888,15.744,17.152V0h17.92V-39.168c0-11.264,6.272-17.152,15.872-17.152,9.472,0,15.744,5.888,15.744,17.152ZM346.88-57.344c9.216,0,16.64,5.888,16.9,15.232H330.112C331.52-51.84,338.3-57.344,346.88-57.344Zm33.664,35.072H361.216c-2.3,4.736-6.528,8.576-14.208,8.576-8.96,0-16.128-5.888-17.024-16.384h51.84a41.888,41.888,0,0,0,.512-6.912c0-21.12-14.464-35.072-34.944-35.072-20.992,0-35.584,14.208-35.584,36.608,0,22.272,14.976,36.608,35.584,36.608C364.928,1.152,376.7-9.216,380.544-22.272ZM421.5-44.8C421.5-18.048,441.088.768,466.816.768c19.84,0,35.968-10.5,41.984-28.928H488.192c-4.224,8.7-11.9,12.928-21.5,12.928-15.616,0-26.752-11.52-26.752-29.568,0-18.176,11.136-29.568,26.752-29.568,9.6,0,17.28,4.224,21.5,12.8H508.8c-6.016-18.3-22.144-28.928-41.984-28.928C441.088-90.5,421.5-71.552,421.5-44.8ZM592.64-35.456c0-22.4-16-36.608-36.48-36.608s-36.48,14.208-36.48,36.608c0,22.272,15.488,36.608,35.968,36.608C576.256,1.152,592.64-13.184,592.64-35.456Zm-54.784,0c0-14.208,8.576-20.992,18.048-20.992s18.3,6.784,18.3,20.992c0,14.08-9.088,20.992-18.56,20.992C546.048-14.464,537.856-21.376,537.856-35.456ZM605.824,0h17.92V-70.912h-17.92Zm9.088-79.36c6.272,0,11.008-4.608,11.008-10.5s-4.736-10.5-11.008-10.5c-6.4,0-11.008,4.608-11.008,10.5S608.512-79.36,614.912-79.36ZM691.072,0h17.92V-41.6c0-19.584-11.776-30.336-28.288-30.336-9.088,0-16.768,3.84-21.376,9.856v-8.832h-17.92V0h17.92V-39.168c0-11.392,6.272-17.536,16-17.536,9.472,0,15.744,6.144,15.744,17.536Z" transform="translate(7025 3277)" fill="#fff"/>
  </g>
</svg>
