<svg xmlns="http://www.w3.org/2000/svg" width="843.539" height="253.255" viewBox="0 0 843.539 253.255">
  <g id="LOGO" transform="translate(-6719.166 -3105.745)">
    <path id="Subtraction_2" data-name="Subtraction 2" d="M113.017,253.255h0L53.846,219.526V101.183l59.171-33.136,75.74,42.6v-28.4l-75.74-42.6L31.361,86.982V205.917L0,188.757V62.722L113.018,0,223.669,62.722V188.757l-110.651,64.5Zm16.817-142v22h22v-22Zm-48,0v22h22v-22Z" transform="translate(6719.166 3105.745)" fill="#fff"/>
    <path id="Path_669" data-name="Path 669" d="M56.192-61.568c0,8.064-4.48,13.312-14.464,13.312H26.752V-74.5H41.728C51.712-74.5,56.192-69.5,56.192-61.568ZM8.832-89.344V0h17.92V-34.816H35.2L54.912,0H75.648L54.272-36.224c14.336-3.84,20.352-14.848,20.352-25.728,0-14.976-10.752-27.392-32.256-27.392ZM157.824-70.912H139.776v39.04c0,11.392-6.144,17.536-15.872,17.536-9.472,0-15.744-6.144-15.744-17.536v-39.04H90.24v41.6C90.24-9.856,102.144.9,118.656.9c8.832,0,16.64-3.84,21.12-9.856V0h18.048Zm84.608,0H224.384v39.04c0,11.392-6.144,17.536-15.872,17.536-9.472,0-15.744-6.144-15.744-17.536v-39.04h-17.92v41.6C174.848-9.856,186.752.9,203.264.9c8.832,0,16.64-3.84,21.12-9.856V0h18.048ZM262.016,0h18.176V-56.192h12.416v-14.72H280.192v-2.944c0-7.936,2.944-10.752,11.648-10.5v-15.1c-19.968-.512-29.824,7.552-29.824,24.96v3.584h-8.064v14.72h8.064Zm60.16-48.768V-74.752h14.208c10.112,0,14.592,4.864,14.592,13.056,0,7.936-4.48,12.928-14.592,12.928ZM369.408-61.7c0-15.488-10.752-27.648-32.256-27.648h-32.9V0h17.92V-34.3h14.976C360.192-34.3,369.408-48.128,369.408-61.7Zm8.064,25.984c0,22.144,14.336,36.864,32.256,36.864,11.264,0,19.328-5.376,23.552-11.52V0h18.048V-70.912H433.28V-60.8c-4.224-5.888-12.032-11.264-23.424-11.264C391.808-72.064,377.472-57.856,377.472-35.712Zm55.808.256c0,13.44-8.96,20.864-18.816,20.864-9.6,0-18.688-7.68-18.688-21.12s9.088-20.608,18.688-20.608C424.32-56.32,433.28-48.9,433.28-35.456Zm65.792,14.08-18.3-49.536h-20.1l28.416,69.12-15.36,35.328H492.8L536.7-70.912H517.632Z" transform="translate(7026 3277)" fill="#fff"/>
  </g>
</svg>
