<svg xmlns="http://www.w3.org/2000/svg" width="937" height="200.761" viewBox="0 0 937 200.761">
  <g id="ethereum-logo" transform="translate(-19.903 -29.882)">
    <g id="Group_439" data-name="Group 439" transform="translate(232.401 66.894)">
      <path id="Path_621" data-name="Path 621" d="M131.467,80.828a3.22,3.22,0,0,1-2.994,2.994H72.09c1.5,13.971,11.975,26.944,26.944,26.944,9.979,0,17.464-3.992,23.451-11.975a2.744,2.744,0,0,1,2.495-1.5,2.876,2.876,0,0,1,2.994,2.994,1.833,1.833,0,0,1-.5,1.5c-5.489,9.979-16.965,14.969-27.942,14.969-18.961,0-32.433-16.965-32.433-35.427S80.572,45.9,99.533,45.9s31.934,16.466,31.934,34.928m-5.988-2.994c-1-13.971-11.975-26.944-26.944-26.944S73.088,63.863,71.591,77.834Z" transform="translate(-67.1 9.984)" fill="#3c3c3b"/>
      <path id="Path_622" data-name="Path 622" d="M124.521,66.447a3.219,3.219,0,0,1,2.994,2.994,2.876,2.876,0,0,1-2.994,2.994H109.551v59.377a2.876,2.876,0,0,1-2.994,2.994,3.219,3.219,0,0,1-2.994-2.994V71.936H89.094a2.994,2.994,0,0,1,0-5.988h14.47V43.994a2.994,2.994,0,1,1,5.988,0V65.948h14.969Z" transform="translate(8.704 -9.565)" fill="#3c3c3b"/>
      <path id="Path_623" data-name="Path 623" d="M157.483,120.522v35.926a3.22,3.22,0,0,1-2.994,2.994,2.876,2.876,0,0,1-2.994-2.994V120.522c0-11.975-6.986-24.449-20.458-24.449-17.464,0-24.948,14.969-23.95,30.936v29.439a2.994,2.994,0,1,1-5.988,0V37.694a2.876,2.876,0,0,1,2.994-2.994,3.22,3.22,0,0,1,2.994,2.994v66.862c4.99-8.482,13.472-14.47,23.95-14.47,16.965,0,26.445,14.969,26.445,30.437" transform="translate(68.549 -34.7)" fill="#3c3c3b"/>
      <path id="Path_624" data-name="Path 624" d="M184.167,80.836a3.22,3.22,0,0,1-2.994,2.994H124.79c1.5,13.971,11.975,26.944,26.944,26.944,9.979,0,17.464-3.992,23.451-11.975a2.744,2.744,0,0,1,2.495-1.5,2.876,2.876,0,0,1,2.994,2.994,1.833,1.833,0,0,1-.5,1.5c-5.489,9.979-16.965,14.969-27.942,14.969-18.961,0-32.433-16.965-32.433-35.427s13.472-35.427,32.433-35.427c18.462-.5,31.934,16.466,31.934,34.928m-5.988-2.994c-1-13.971-11.975-26.944-26.944-26.944s-25.447,12.973-26.944,26.944Z" transform="translate(143.156 9.976)" fill="#3c3c3b"/>
      <path id="Path_625" data-name="Path 625" d="M172.633,48.595c0,2-1,2.994-2.495,2.994-16.466,2.495-23.95,15.967-23.95,31.934v26.944a2.994,2.994,0,0,1-5.988,0V49.094a2.994,2.994,0,0,1,5.988,0V61.568c4.491-7.983,13.971-15.468,23.95-15.468.5,0,2.495,1,2.495,2.495" transform="translate(224.545 10.782)" fill="#3c3c3b"/>
      <path id="Path_626" data-name="Path 626" d="M216.767,80.836a3.219,3.219,0,0,1-2.994,2.994H157.39c1.5,13.971,11.975,26.944,26.944,26.944,9.979,0,17.464-3.992,23.451-11.975a2.744,2.744,0,0,1,2.495-1.5,2.876,2.876,0,0,1,2.994,2.994,1.833,1.833,0,0,1-.5,1.5c-5.489,9.979-16.965,14.969-27.942,14.969-18.961,0-32.433-16.965-32.433-35.427s13.472-35.427,32.433-35.427c17.963-.5,31.934,16.466,31.934,34.928m-5.988-2.994c-1-13.971-11.975-26.944-26.944-26.944s-25.447,12.973-26.944,26.944Z" transform="translate(273.219 9.976)" fill="#3c3c3b"/>
      <path id="Path_627" data-name="Path 627" d="M227.885,49.493v61.872a3.22,3.22,0,0,1-2.994,2.994,2.876,2.876,0,0,1-2.994-2.994V99.39c-4.491,9.48-12.973,15.967-23.451,15.967-16.965,0-25.946-14.47-25.946-29.938V48.994A2.876,2.876,0,0,1,175.494,46a3.22,3.22,0,0,1,2.994,2.994V85.917c0,11.975,6.986,24.449,20.458,24.449,18.961,0,23.451-17.963,23.451-37.423V49.992A2.876,2.876,0,0,1,225.391,47a2.673,2.673,0,0,1,2.495,2.495" transform="translate(353.412 10.383)" fill="#3c3c3b"/>
      <path id="Path_628" data-name="Path 628" d="M297.28,75.349v36.425a3.22,3.22,0,0,1-2.994,2.994,2.876,2.876,0,0,1-2.994-2.994V75.349c0-11.975-6.985-23.95-20.458-23.95-16.965,0-23.452,18.462-23.452,32.433v27.942a3.219,3.219,0,0,1-2.994,2.994,2.876,2.876,0,0,1-2.994-2.994V75.349c0-11.975-6.985-23.95-20.458-23.95-17.464,0-24.449,13.472-23.95,31.435v28.94a2.994,2.994,0,0,1-5.988,0V49.9a2.994,2.994,0,0,1,5.988,0V60.38c4.99-8.482,13.472-14.47,23.95-14.47,11.476,0,20.458,7.485,23.951,17.963,4.491-10.478,13.971-17.963,25.447-17.963,17.464-.5,26.944,13.971,26.944,29.439" transform="translate(427.221 9.974)" fill="#3c3c3b"/>
    </g>
    <g id="Group_440" data-name="Group 440" transform="translate(19.903 29.882)">
      <g id="LWPOLYLINE" transform="translate(0 113.932)">
        <path id="Path_629" data-name="Path 629" d="M7.7,55.4l61.483,86.829V91.788L7.7,55.4" transform="translate(-7.7 -55.4)" fill="#8c8c8c"/>
      </g>
      <g id="LWPOLYLINE_1_" transform="translate(0 74.281)">
        <path id="Path_630" data-name="Path 630" d="M7.7,67.456l61.483,36.639V39.6L7.7,67.456" transform="translate(-7.7 -39.6)" fill="#393939"/>
      </g>
      <g id="LWPOLYLINE_2_" transform="translate(0 0)">
        <path id="Path_631" data-name="Path 631" d="M7.7,112.137,69.183,84.281V10L7.7,112.137" transform="translate(-7.7 -10)" fill="#8c8c8c"/>
      </g>
      <g id="LWPOLYLINE_3_" transform="translate(61.483 113.932)">
        <path id="Path_632" data-name="Path 632" d="M93.934,55.4,32.2,142.229V91.788L93.934,55.4" transform="translate(-32.2 -55.4)" fill="#343434"/>
      </g>
      <g id="LWPOLYLINE_4_" transform="translate(61.483 74.281)">
        <path id="Path_633" data-name="Path 633" d="M93.934,67.456,32.2,104.094V39.6L93.934,67.456" transform="translate(-32.2 -39.6)" fill="#151515"/>
      </g>
      <g id="LWPOLYLINE_5_" transform="translate(61.483 0)">
        <path id="Path_634" data-name="Path 634" d="M93.934,112.137,32.2,84.281V10L93.934,112.137" transform="translate(-32.2 -10)" fill="#343434"/>
      </g>
    </g>
  </g>
</svg>
